<svg xmlns="http://www.w3.org/2000/svg" width="70" height="40" viewBox="0 0 82.643 62.004">
  <path id="truck"
    d="M0,9.748A7.748,7.748,0,0,1,7.748,2H54.234a7.748,7.748,0,0,1,7.748,7.748V17.5H67.25A7.748,7.748,0,0,1,73.294,20.4l7.65,9.556a7.748,7.748,0,0,1,1.7,4.845V45.9a7.748,7.748,0,0,1-7.748,7.748H72.312a10.33,10.33,0,0,1-20.661,0H25.826a10.33,10.33,0,1,1-20.65-.439A7.748,7.748,0,0,1,0,45.9ZM6.684,48.259a10.325,10.325,0,0,1,17.758.227H53.036a10.382,10.382,0,0,1,3.781-3.781V9.748a2.583,2.583,0,0,0-2.583-2.583H7.748A2.583,2.583,0,0,0,5.165,9.748V45.9a2.583,2.583,0,0,0,1.519,2.355Zm55.3-4.938a10.33,10.33,0,0,1,8.946,5.165h3.967A2.583,2.583,0,0,0,77.478,45.9V34.8a2.583,2.583,0,0,0-.568-1.612l-7.644-9.556a2.583,2.583,0,0,0-2.014-.971H61.982ZM15.5,48.487a5.165,5.165,0,1,0,5.165,5.165A5.165,5.165,0,0,0,15.5,48.487Zm46.487,0a5.165,5.165,0,1,0,5.165,5.165A5.165,5.165,0,0,0,61.982,48.487Z"
    transform="translate(0 -2)" fill="rgb(253, 181, 27)" />
</svg>