<svg xmlns="http://www.w3.org/2000/svg" width="70" height="40" viewBox="0 0 36.828 62.029">
  <path id="currency-dollar"
    d="M4,44.336c.656,7.386,6.7,12.627,15.911,13.305v5.388h4.621V57.642c10.058-.793,16.3-6.371,16.3-14.621,0-7.045-4.2-11.121-13.1-13.416l-3.2-.829V11.93c4.971.487,8.325,3.163,9.171,7.16h6.513C39.481,12,33.393,6.915,24.532,6.352V1H19.911V6.463C11.319,7.482,5.422,12.985,5.422,20.446c0,6.442,4.28,11,11.79,12.924l2.7.718v17.86c-5.091-.753-8.6-3.545-9.442-7.612H4Zm15.024-17c-4.621-1.165-7.089-3.655-7.089-7.16,0-4.183,3.119-7.271,7.975-8.1V27.566l-.886-.222Zm7.049,8.294c5.7,1.431,8.206,3.806,8.206,7.838,0,4.86-3.66,8.1-9.747,8.591V35.249l1.542.381Z"
    transform="translate(-4 -1)" fill="#1b70a8" />
</svg>