<svg data-v-9559f922="" id="Layer_1" data-name="Layer 1" xmlns="http://www.w3.org/2000/svg" width="150px" height="50px"
    viewBox="0 0 625.18 115.06" class="width-100">
    <path d="M246.11,15.46h8.52V81.32h-8.52Z" fill="#b7c1cd"></path>
    <path
        d="M278.42,78.74a22.5,22.5,0,0,1-8.75-8.56,24.33,24.33,0,0,1-3.15-12.38,24.3,24.3,0,0,1,3.15-12.38,22.29,22.29,0,0,1,8.75-8.53A25.82,25.82,0,0,1,291,33.83a25.56,25.56,0,0,1,12.56,3.06,22.36,22.36,0,0,1,8.7,8.53,24.3,24.3,0,0,1,3.15,12.38,24.33,24.33,0,0,1-3.15,12.38,22.57,22.57,0,0,1-8.7,8.56A25.16,25.16,0,0,1,291,81.85,25.42,25.42,0,0,1,278.42,78.74Zm20.72-6.43a14.67,14.67,0,0,0,5.64-5.86,17.89,17.89,0,0,0,2-8.65,17.93,17.93,0,0,0-2-8.66,14.41,14.41,0,0,0-5.64-5.81,17.18,17.18,0,0,0-16.24,0,14.7,14.7,0,0,0-5.68,5.81,17.62,17.62,0,0,0-2.09,8.66,17.58,17.58,0,0,0,2.09,8.65,15,15,0,0,0,5.68,5.86,16.82,16.82,0,0,0,16.24,0Z"
        fill="#b7c1cd"></path>
    <path
        d="M372.24,34.28V74.93q0,12.33-6.13,18.24t-18.28,5.9a43.8,43.8,0,0,1-12.69-1.82,25.08,25.08,0,0,1-9.77-5.19l4.09-6.57A23.92,23.92,0,0,0,337.58,90a30.68,30.68,0,0,0,10,1.65c5.51,0,9.57-1.31,12.21-3.91s4-6.57,4-11.89V72.09a19,19,0,0,1-7.42,5.46,24.68,24.68,0,0,1-9.54,1.82,25.64,25.64,0,0,1-12.2-2.89A21.39,21.39,0,0,1,326,68.4a22.63,22.63,0,0,1-3.1-11.85A22.62,22.62,0,0,1,326,44.71a21.16,21.16,0,0,1,8.57-8,26.09,26.09,0,0,1,12.2-2.84,25,25,0,0,1,9.9,2,18.44,18.44,0,0,1,7.5,5.77V34.28ZM356,70a14.45,14.45,0,0,0,5.77-5.46,15.26,15.26,0,0,0,2.08-8,14.41,14.41,0,0,0-4.52-11,16.4,16.4,0,0,0-11.63-4.21q-7.19,0-11.72,4.21a14.41,14.41,0,0,0-4.52,11,15.26,15.26,0,0,0,2.08,8A14.45,14.45,0,0,0,339.35,70a17.66,17.66,0,0,0,8.39,2A17.47,17.47,0,0,0,356,70Z"
        fill="#b7c1cd"></path>
    <path
        d="M388.61,23.62a5.23,5.23,0,0,1-1.64-3.9,5.39,5.39,0,0,1,1.64-3.95,5.58,5.58,0,0,1,4.13-1.64,5.8,5.8,0,0,1,4.13,1.55,5.12,5.12,0,0,1,1.64,3.86,5.5,5.5,0,0,1-1.64,4,5.58,5.58,0,0,1-4.13,1.64A5.67,5.67,0,0,1,388.61,23.62Zm-.13,10.66H397v47h-8.52Z"
        fill="#b7c1cd"></path>
    <path
        d="M415.64,80.3a24.37,24.37,0,0,1-8.34-4l3.55-6.75a25.22,25.22,0,0,0,7.54,3.55,31,31,0,0,0,9,1.33q11.17,0,11.18-6.39A4.12,4.12,0,0,0,437,64.72a9.55,9.55,0,0,0-3.77-1.82c-1.51-.38-3.65-.81-6.44-1.29a63,63,0,0,1-9.27-2,14.34,14.34,0,0,1-6.17-3.9c-1.72-1.84-2.57-4.41-2.57-7.72a12.07,12.07,0,0,1,5.32-10.26q5.33-3.86,14.29-3.86A39.35,39.35,0,0,1,437.83,35a25.29,25.29,0,0,1,7.72,3.1l-3.64,6.75a24.41,24.41,0,0,0-13.58-3.73q-5.41,0-8.25,1.77a5.36,5.36,0,0,0-2.84,4.71,4.48,4.48,0,0,0,1.6,3.64,10,10,0,0,0,4,2c1.56.42,3.77.89,6.61,1.42a71.93,71.93,0,0,1,9.19,2.09,13.82,13.82,0,0,1,6,3.77q2.48,2.65,2.48,7.46a11.76,11.76,0,0,1-5.46,10.16q-5.46,3.78-14.86,3.77A39.64,39.64,0,0,1,415.64,80.3Z"
        fill="#b7c1cd"></path>
    <path
        d="M484.16,78.57A12.75,12.75,0,0,1,479.55,81a19.38,19.38,0,0,1-5.68.84q-7.11,0-11-3.81T459,67.12V41.29h-8v-7h8V24h8.52v10.3H481v7H467.48V66.76a8.27,8.27,0,0,0,1.9,5.86,7.14,7.14,0,0,0,5.46,2,10.25,10.25,0,0,0,6.66-2.22Z"
        fill="#b7c1cd"></path>
    <path
        d="M494.59,23.62a5.23,5.23,0,0,1-1.64-3.9,5.39,5.39,0,0,1,1.64-3.95,5.58,5.58,0,0,1,4.13-1.64,5.8,5.8,0,0,1,4.13,1.55,5.12,5.12,0,0,1,1.64,3.86,5.5,5.5,0,0,1-1.64,4,5.58,5.58,0,0,1-4.13,1.64A5.67,5.67,0,0,1,494.59,23.62Zm-.13,10.66H503v47h-8.52Z"
        fill="#b7c1cd"></path>
    <path
        d="M526.9,78.74a22.71,22.71,0,0,1-8.83-8.56,24.06,24.06,0,0,1-3.2-12.38,24,24,0,0,1,3.2-12.38,22.5,22.5,0,0,1,8.83-8.53,26.45,26.45,0,0,1,12.83-3.06,24.54,24.54,0,0,1,11.4,2.58,18.31,18.31,0,0,1,7.77,7.45L552.42,48a14.58,14.58,0,0,0-5.5-5.06,15.76,15.76,0,0,0-7.28-1.68,16.82,16.82,0,0,0-8.3,2,14.53,14.53,0,0,0-5.77,5.81,17.62,17.62,0,0,0-2.09,8.66,17.77,17.77,0,0,0,2.09,8.74,14.47,14.47,0,0,0,5.77,5.81,16.72,16.72,0,0,0,8.3,2.05,15.77,15.77,0,0,0,7.28-1.69,14.43,14.43,0,0,0,5.5-5.06l6.48,4.08a18.55,18.55,0,0,1-7.77,7.5,24.19,24.19,0,0,1-11.4,2.62A26,26,0,0,1,526.9,78.74Z"
        fill="#b7c1cd"></path>
    <path
        d="M572.3,80.3a24.37,24.37,0,0,1-8.34-4l3.55-6.75a25.22,25.22,0,0,0,7.54,3.55,31,31,0,0,0,9,1.33q11.18,0,11.18-6.39a4.12,4.12,0,0,0-1.51-3.37,9.55,9.55,0,0,0-3.77-1.82q-2.26-.57-6.43-1.29a62.86,62.86,0,0,1-9.28-2,14.34,14.34,0,0,1-6.17-3.9c-1.72-1.84-2.57-4.41-2.57-7.72a12.07,12.07,0,0,1,5.32-10.26q5.33-3.86,14.29-3.86A39.35,39.35,0,0,1,594.49,35a25.29,25.29,0,0,1,7.72,3.1l-3.63,6.75A24.46,24.46,0,0,0,585,41.11c-3.61,0-6.37.59-8.26,1.77a5.38,5.38,0,0,0-2.84,4.71,4.48,4.48,0,0,0,1.6,3.64,10,10,0,0,0,4,2q2.35.63,6.61,1.42a71.53,71.53,0,0,1,9.19,2.09,13.82,13.82,0,0,1,6,3.77q2.47,2.65,2.48,7.46a11.76,11.76,0,0,1-5.46,10.16q-5.44,3.78-14.86,3.77A39.64,39.64,0,0,1,572.3,80.3Z"
        fill="#b7c1cd"></path>
    <path d="M291,52.07a5.73,5.73,0,1,0,5.73,5.73h0A5.73,5.73,0,0,0,291,52.07Z" fill="#b7c1cd"></path>
    <path
        d="M72.75,33.86v65H58.9V76.56q-5.15,5.76-14.29,5.77a24.83,24.83,0,0,1-12.21-3,21.69,21.69,0,0,1-8.56-8.61,26.27,26.27,0,0,1-3.11-13,26.27,26.27,0,0,1,3.11-13,21.62,21.62,0,0,1,8.56-8.61,24.83,24.83,0,0,1,12.21-3q9.77,0,14.91,6.21v-5.5Zm-17,33.51q3.46-3.6,3.47-9.63T55.7,48.11A11.53,11.53,0,0,0,47,44.51a11.68,11.68,0,0,0-8.79,3.6q-3.47,3.59-3.46,9.63t3.46,9.63A11.67,11.67,0,0,0,47,71,11.53,11.53,0,0,0,55.7,67.37Z"
        fill="#b7c1cd"></path>
    <path
        d="M159.15,34.93a24.75,24.75,0,0,1,9.72-1.78V45.93c-1.54-.11-2.57-.18-3.1-.18q-6,0-9.32,3.33t-3.37,10V81.61H139.23V33.86h13.22v6.3A15.43,15.43,0,0,1,159.15,34.93Z"
        fill="#b7c1cd"></path>
    <path
        d="M223.2,61.64H187.07a11.26,11.26,0,0,0,4.62,7,15.3,15.3,0,0,0,9.05,2.57,18.28,18.28,0,0,0,6.61-1.11,15.87,15.87,0,0,0,5.37-3.51l7.37,8q-6.75,7.73-19.7,7.73a31.1,31.1,0,0,1-14.3-3.16,23.08,23.08,0,0,1-9.58-8.74,24.08,24.08,0,0,1-3.37-12.69,24.48,24.48,0,0,1,3.32-12.65,23.3,23.3,0,0,1,9.15-8.79,28.29,28.29,0,0,1,25.69-.13,22,22,0,0,1,8.92,8.65,25.82,25.82,0,0,1,3.24,13.1C223.46,58.09,223.37,59.34,223.2,61.64ZM190.8,46.29a11.35,11.35,0,0,0-3.91,7.28h23.53a11.51,11.51,0,0,0-3.91-7.24,11.68,11.68,0,0,0-7.81-2.7A11.89,11.89,0,0,0,190.8,46.29Z"
        fill="#b7c1cd"></path>
    <path
        d="M129,45.51h0a23.87,23.87,0,0,0-9.23-8.75c-11.93-6.48-27.51-3-34.73,7.68-.23.35-.46.7-.68,1.07a24.05,24.05,0,0,0,0,24.32,23.65,23.65,0,0,0,9.28,8.74,28.73,28.73,0,0,0,26.08,0,23.65,23.65,0,0,0,9.25-8.72,24.18,24.18,0,0,0,0-24.32ZM120.14,57.7a14.07,14.07,0,0,1-1.81,7.08,13.07,13.07,0,0,1-11.52,6.36h-.19a13.5,13.5,0,0,1-6.75-1.71A13,13,0,0,1,95,64.67a14.32,14.32,0,0,1,0-14.08,13,13,0,0,1,4.87-4.77,14.42,14.42,0,0,1,13.62,0,12.54,12.54,0,0,1,4.84,4.74A14.13,14.13,0,0,1,120.14,57.7Z"
        fill="#b7c1cd"></path>
    <path d="M106.61,52.19a5.2,5.2,0,1,0,5.2,5.19h0A5.19,5.19,0,0,0,106.61,52.19Z" fill="#b7c1cd"></path>
    <polygon points="58.9 86.48 58.9 98.83 78.47 98.83 86.18 86.48 58.9 86.48" fill="#b7c1cd"></polygon>
</svg>