<svg xmlns="http://www.w3.org/2000/svg" width="70" height="40" viewBox="0 0 72.466 54.5">
  <g id="speedometer2" transform="translate(0 -2.007)">
    <path id="Path_3" data-name="Path 3" d="M29.174,4a2.265,2.265,0,0,1,2.265,2.265v6.794a2.265,2.265,0,0,1-4.529,0V6.265A2.265,2.265,0,0,1,29.174,4ZM9.844,11.844a2.265,2.265,0,0,1,3.2,0l4.144,4.14a2.267,2.267,0,1,1-3.207,3.207l-4.14-4.144a2.265,2.265,0,0,1,0-3.2ZM2,31.174A2.265,2.265,0,0,1,4.265,28.91h7.183a2.265,2.265,0,1,1,0,4.529H4.265A2.265,2.265,0,0,1,2,31.174Zm43.026,0A2.265,2.265,0,0,1,47.29,28.91h6.794a2.265,2.265,0,1,1,0,4.529H47.29A2.265,2.265,0,0,1,45.026,31.174Zm3.415-19.23a1.762,1.762,0,0,0-2.387-.091l-18.931,16.2a4.121,4.121,0,1,0,5.9,5.7L48.572,14.285a1.762,1.762,0,0,0-.131-2.346Z" transform="translate(7.058 7.033)" fill="#63894a"/>
    <path id="Path_4" data-name="Path 4" d="M0,38.207A36.232,36.232,0,1,1,70.413,50.259c-2,5.675-8.356,7.256-13.279,5.661-5.915-1.916-14.221-4.126-20.9-4.126S21.241,54,15.331,55.921c-4.923,1.594-11.277.014-13.279-5.661A36.178,36.178,0,0,1,0,38.207ZM36.232,6.5A31.7,31.7,0,0,0,6.327,48.756c.919,2.6,4.18,3.967,7.609,2.853,5.978-1.929,14.86-4.343,22.3-4.343s16.323,2.409,22.3,4.348c3.428,1.11,6.689-.254,7.609-2.858A31.7,31.7,0,0,0,36.232,6.5Z" transform="translate(0 0)" fill="#63894a" fill-rule="evenodd"/>
  </g>
</svg>
