<svg id="Layer_1" data-name="Layer 1" xmlns="http://www.w3.org/2000/svg" viewBox="0 0 395.06 195.53">
    <defs>
        <style>
            .cls-1 {
                fill: #fff;
            }
        </style>
    </defs>
    <title>Logo</title>
    <path class="cls-1" d="M20.43,88.5H29v65.86H20.43Z" />
    <path class="cls-1"
        d="M52.74,151.78A22.5,22.5,0,0,1,44,143.22a25.92,25.92,0,0,1,0-24.77,22.2,22.2,0,0,1,8.75-8.52,25.8,25.8,0,0,1,12.6-3.06,25.58,25.58,0,0,1,12.56,3.06,22.27,22.27,0,0,1,8.7,8.52,25.92,25.92,0,0,1,0,24.77,22.57,22.57,0,0,1-8.7,8.56,25.29,25.29,0,0,1-12.56,3.11A25.5,25.5,0,0,1,52.74,151.78Zm20.72-6.43a14.67,14.67,0,0,0,5.64-5.86,19.38,19.38,0,0,0,0-17.31,14.41,14.41,0,0,0-5.64-5.81,17.18,17.18,0,0,0-16.24,0,14.7,14.7,0,0,0-5.68,5.81,19,19,0,0,0,0,17.31,15,15,0,0,0,5.68,5.86,16.89,16.89,0,0,0,16.24,0Z" />
    <path class="cls-1"
        d="M146.56,107.31V148q0,12.33-6.13,18.24t-18.28,5.9a43.91,43.91,0,0,1-12.7-1.82,25.11,25.11,0,0,1-9.76-5.19l4.08-6.57A24.07,24.07,0,0,0,111.9,163a30.67,30.67,0,0,0,10,1.64q8.25,0,12.21-3.9t3.95-11.9v-3.72a19.07,19.07,0,0,1-7.42,5.46,24.71,24.71,0,0,1-9.54,1.81,25.72,25.72,0,0,1-12.2-2.88,21.45,21.45,0,0,1-8.57-8.08,24.13,24.13,0,0,1,0-23.7,21.13,21.13,0,0,1,8.57-8,26.06,26.06,0,0,1,12.2-2.84,25,25,0,0,1,9.9,1.95,18.44,18.44,0,0,1,7.5,5.77v-7.28ZM130.36,143a14.52,14.52,0,0,0,5.77-5.46,15.26,15.26,0,0,0,2.08-7.95,14.43,14.43,0,0,0-4.52-11,16.4,16.4,0,0,0-11.63-4.21q-7.19,0-11.72,4.21a14.39,14.39,0,0,0-4.52,11,15.26,15.26,0,0,0,2.08,7.95,14.46,14.46,0,0,0,5.77,5.46,17.66,17.66,0,0,0,8.39,1.95A17.47,17.47,0,0,0,130.36,143Z" />
    <path class="cls-1"
        d="M162.93,96.66a5.23,5.23,0,0,1-1.64-3.9,5.39,5.39,0,0,1,1.64-4,5.58,5.58,0,0,1,4.13-1.64,5.76,5.76,0,0,1,4.13,1.55,5.1,5.1,0,0,1,1.64,3.86,5.51,5.51,0,0,1-1.64,4,6.07,6.07,0,0,1-8.26,0Zm-.13,10.65h8.52v47.05H162.8Z" />
    <path class="cls-1"
        d="M190,153.34a24.55,24.55,0,0,1-8.34-4l3.55-6.75a25.47,25.47,0,0,0,7.54,3.55,31,31,0,0,0,9,1.33q11.17,0,11.18-6.39a4.12,4.12,0,0,0-1.51-3.37,9.48,9.48,0,0,0-3.77-1.82c-1.51-.39-3.66-.81-6.44-1.29a62.4,62.4,0,0,1-9.27-2,14.28,14.28,0,0,1-6.17-3.9c-1.72-1.84-2.58-4.41-2.58-7.73a12.07,12.07,0,0,1,5.33-10.25q5.33-3.86,14.29-3.86a39.34,39.34,0,0,1,9.41,1.15,25.4,25.4,0,0,1,7.72,3.11l-3.64,6.75a24.41,24.41,0,0,0-13.58-3.73q-5.42,0-8.25,1.77a5.36,5.36,0,0,0-2.84,4.71,4.48,4.48,0,0,0,1.6,3.64,10.12,10.12,0,0,0,3.94,2q2.35.63,6.62,1.42a71.32,71.32,0,0,1,9.18,2.09,13.71,13.71,0,0,1,6,3.77q2.47,2.66,2.48,7.46a11.76,11.76,0,0,1-5.46,10.16q-5.46,3.76-14.87,3.77A39.62,39.62,0,0,1,190,153.34Z" />
    <path class="cls-1"
        d="M258.48,151.61a12.9,12.9,0,0,1-4.61,2.44,19.38,19.38,0,0,1-5.68.84q-7.11,0-11-3.82t-3.91-10.91V114.33h-8v-7h8V97h8.52v10.29h13.5v7h-13.5V139.8a8.29,8.29,0,0,0,1.91,5.86,7.11,7.11,0,0,0,5.46,2,10.25,10.25,0,0,0,6.66-2.22Z" />
    <path class="cls-1"
        d="M268.91,96.66a5.23,5.23,0,0,1-1.64-3.9,5.39,5.39,0,0,1,1.64-4A5.58,5.58,0,0,1,273,87.17a5.77,5.77,0,0,1,4.13,1.55,5.1,5.1,0,0,1,1.64,3.86,5.51,5.51,0,0,1-1.64,4,6.07,6.07,0,0,1-8.26,0Zm-.13,10.65h8.52v47.05h-8.52Z" />
    <path class="cls-1"
        d="M301.22,151.78a22.71,22.71,0,0,1-8.83-8.56,25.57,25.57,0,0,1,0-24.77,22.41,22.41,0,0,1,8.83-8.52,26.45,26.45,0,0,1,12.83-3.06,24.66,24.66,0,0,1,11.4,2.57,18.45,18.45,0,0,1,7.77,7.46l-6.48,4.17a14.58,14.58,0,0,0-5.5-5.06,15.76,15.76,0,0,0-7.28-1.68,16.82,16.82,0,0,0-8.3,2,14.53,14.53,0,0,0-5.77,5.81,17.62,17.62,0,0,0-2.09,8.66,17.79,17.79,0,0,0,2.09,8.74,14.53,14.53,0,0,0,5.77,5.81,16.82,16.82,0,0,0,8.3,2,15.76,15.76,0,0,0,7.28-1.68,14.58,14.58,0,0,0,5.5-5.06l6.48,4.08a18.61,18.61,0,0,1-7.77,7.5,24.19,24.19,0,0,1-11.4,2.62A26.14,26.14,0,0,1,301.22,151.78Z" />
    <path class="cls-1"
        d="M346.62,153.34a24.55,24.55,0,0,1-8.34-4l3.55-6.75a25.47,25.47,0,0,0,7.54,3.55,31,31,0,0,0,9,1.33q11.18,0,11.18-6.39a4.12,4.12,0,0,0-1.51-3.37,9.41,9.41,0,0,0-3.77-1.82c-1.51-.39-3.65-.81-6.44-1.29a63,63,0,0,1-9.27-2,14.34,14.34,0,0,1-6.17-3.9c-1.72-1.84-2.57-4.41-2.57-7.73a12.06,12.06,0,0,1,5.32-10.25q5.33-3.86,14.29-3.86a39.34,39.34,0,0,1,9.41,1.15,25.29,25.29,0,0,1,7.72,3.11l-3.64,6.75a24.41,24.41,0,0,0-13.58-3.73q-5.42,0-8.25,1.77a5.38,5.38,0,0,0-2.84,4.71,4.48,4.48,0,0,0,1.6,3.64,10.1,10.1,0,0,0,3.95,2c1.56.42,3.77.89,6.61,1.42a71.53,71.53,0,0,1,9.19,2.09,13.73,13.73,0,0,1,6,3.77Q378,136.16,378,141a11.76,11.76,0,0,1-5.46,10.16q-5.46,3.76-14.86,3.77A39.64,39.64,0,0,1,346.62,153.34Z" />
    <path class="cls-1" d="M65.3,125.1A5.74,5.74,0,1,0,71,130.84h0A5.74,5.74,0,0,0,65.3,125.1Z" />
    <path class="cls-1"
        d="M72.53,23.08v65H58.68V65.77q-5.15,5.78-14.29,5.77a24.8,24.8,0,0,1-12.2-3,21.58,21.58,0,0,1-8.57-8.61,26.24,26.24,0,0,1-3.1-13,26.27,26.27,0,0,1,3.1-13,21.71,21.71,0,0,1,8.57-8.61,24.79,24.79,0,0,1,12.2-3q9.77,0,14.92,6.21v-5.5Zm-17,33.5Q59,53,59,47t-3.46-9.63a11.6,11.6,0,0,0-8.7-3.59A11.71,11.71,0,0,0,38,37.32q-3.47,3.6-3.46,9.63T38,56.58a11.68,11.68,0,0,0,8.79,3.6A11.57,11.57,0,0,0,55.49,56.58Z" />
    <path class="cls-1"
        d="M158.94,24.14a24.93,24.93,0,0,1,9.72-1.77V35.15c-1.54-.12-2.58-.18-3.11-.18q-5.94,0-9.32,3.33t-3.37,10V70.83H139V23.08h13.23v6.3A15.32,15.32,0,0,1,158.94,24.14Z" />
    <path class="cls-1"
        d="M223,50.86H186.85a11.28,11.28,0,0,0,4.62,7,15.26,15.26,0,0,0,9.05,2.58,18.37,18.37,0,0,0,6.62-1.11,16.06,16.06,0,0,0,5.37-3.51l7.36,8q-6.74,7.73-19.7,7.72a31.16,31.16,0,0,1-14.29-3.15,23.17,23.17,0,0,1-9.59-8.74A24.09,24.09,0,0,1,172.92,47a24.42,24.42,0,0,1,3.33-12.65,23.32,23.32,0,0,1,9.14-8.78,28.35,28.35,0,0,1,25.7-.14A22.12,22.12,0,0,1,220,34a25.8,25.8,0,0,1,3.24,13.09C223.25,47.31,223.16,48.55,223,50.86ZM190.58,35.5a11.35,11.35,0,0,0-3.9,7.28H210.2a11.46,11.46,0,0,0-3.91-7.23,11.64,11.64,0,0,0-7.81-2.71A12,12,0,0,0,190.58,35.5Z" />
    <path class="cls-1"
        d="M128.74,34.73h0A23.88,23.88,0,0,0,119.5,26c-11.93-6.48-27.5-3-34.72,7.67-.24.35-.47.71-.68,1.07a24.09,24.09,0,0,0,0,24.32,23.67,23.67,0,0,0,9.28,8.75,28.81,28.81,0,0,0,26.08,0A23.31,23.31,0,0,0,132,46.92,23.32,23.32,0,0,0,128.74,34.73Zm-8.81,12.19A14,14,0,0,1,118.11,54a13.06,13.06,0,0,1-11.51,6.35h-.2a13.49,13.49,0,0,1-6.75-1.7,13.1,13.1,0,0,1-4.87-4.76,14.41,14.41,0,0,1,0-14.09A13.08,13.08,0,0,1,99.66,35a13.93,13.93,0,0,1,6.8-1.71A13.68,13.68,0,0,1,113.27,35a12.51,12.51,0,0,1,4.84,4.73A14,14,0,0,1,119.93,46.92Z" />
    <path class="cls-1" d="M106.4,41.4a5.2,5.2,0,1,0,5.2,5.2h0A5.2,5.2,0,0,0,106.4,41.4Z" />
    <polygon class="cls-1" points="58.68 75.7 58.68 88.05 78.25 88.05 85.96 75.7 58.68 75.7" />
</svg>