<svg xmlns="http://www.w3.org/2000/svg" width="62.036" height="50" viewBox="0 0 62.036 62.036">
  <path id="person" d="M33.018,33.018A15.509,15.509,0,1,0,17.509,17.509,15.509,15.509,0,0,0,33.018,33.018ZM43.357,17.509A10.339,10.339,0,1,1,33.018,7.17,10.339,10.339,0,0,1,43.357,17.509ZM64.036,58.866c0,5.17-5.17,5.17-5.17,5.17H7.17S2,64.036,2,58.866,7.17,38.187,33.018,38.187,64.036,53.7,64.036,58.866Zm-5.17-.021a13.813,13.813,0,0,0-4.3-8.6c-3.371-3.371-9.714-6.886-21.547-6.886s-18.176,3.515-21.547,6.886a13.842,13.842,0,0,0-4.3,8.6Z" transform="translate(-2 -2)" fill="#63894a"/>
</svg>
