<svg xmlns="http://www.w3.org/2000/svg" width="81.206" height="50" viewBox="0 0 81.206 96.049">
  <path id="cone-striped"
    d="M54.407,29.837l5.952,23.8A79.383,79.383,0,0,1,42.1,55.57a79.424,79.424,0,0,1-18.257-1.93l5.952-23.8a98.124,98.124,0,0,0,12.3.749A98.124,98.124,0,0,0,54.407,29.837Zm-1.53-6.108L48.161,4.854a6.245,6.245,0,0,0-12.117,0L31.328,23.716a88.4,88.4,0,0,0,10.774.625A92.46,92.46,0,0,0,52.876,23.729Zm27.457,53.8a3.123,3.123,0,0,1,.231,6L43.089,96.012a3.123,3.123,0,0,1-1.974,0L3.64,83.52a3.123,3.123,0,0,1,.231-6l14.934-3.735,3.529-14.1A85.262,85.262,0,0,0,42.1,61.809,85.262,85.262,0,0,0,61.87,59.692l3.529,14.1Z"
    transform="translate(-1.499 -0.123)" fill="#1b70a8" />
</svg>